# xmcd
#
# Track frame offsets: 
#        150
#        17620
#        32047
#        48007
#        67185
#        85330
#        105877
#        122685
#        134562
#        152237
#
# Disc length: 2267 seconds
#
# Revision: 6
# Processed by: cddbd v1.5.2PL0 Copyright (c) Steve Scherf et al.
# Submitted via: ExactAudioCopy v0.99pb4
#
DISCID=7c08d90a
DTITLE=Garth Brooks - In Pieces
DYEAR=1993
DGENRE=Country
TTITLE0=Standing Outside The Fire
TTITLE1=The Night I Called The Old Man Out
TTITLE2=American Honkey-Tonk Bar Association
TTITLE3=One Night A Day
TTITLE4=Kickin And Screamin
TTITLE5=Aint Giong Down Til The Sun Comes Up
TTITLE6=The Red Strokes
TTITLE7=Callin Baton Rouge
TTITLE8=The Night Will Only Know
TTITLE9=The Cowboy Song
EXTD=YEAR: 1993
EXTT0=
EXTT1=
EXTT2=
EXTT3=
EXTT4=
EXTT5=
EXTT6=
EXTT7=
EXTT8=
EXTT9=
PLAYORDER=
